<svg width="173" height="104" viewBox="0 0 173 104" fill="none" xmlns="http://www.w3.org/2000/svg">
<path d="M39.0384 88.5716L45.455 103.259H42.7467L41.2675 99.7383H34.3717L32.8717 103.259H30.2467L36.6634 88.5716H39.0384ZM40.33 97.4674L37.8092 91.6341L35.3092 97.4674H40.33Z" fill="#10A37F"/>
<path d="M49.9767 99.0716V103.259H47.4559V92.2591H49.9767V94.7383C50.3239 93.9049 50.817 93.2383 51.4559 92.7383C52.0947 92.2383 52.9003 92.0091 53.8725 92.0508V94.7174H53.7267C53.1711 94.7174 52.6642 94.8077 52.2059 94.9883C51.7475 95.1688 51.3517 95.4397 51.0184 95.8008C50.685 96.1619 50.4281 96.6202 50.2475 97.1758C50.067 97.7174 49.9767 98.3494 49.9767 99.0716Z" fill="#10A37F"/>
<path d="M58.8951 94.4258V99.8216C58.8951 100.308 59.0132 100.662 59.2493 100.884C59.4854 101.092 59.8188 101.197 60.2493 101.197C60.791 101.197 61.3118 101.072 61.8118 100.822V102.884C61.4924 103.065 61.1521 103.204 60.791 103.301C60.4299 103.398 60.0132 103.447 59.541 103.447C59.0826 103.447 58.659 103.391 58.2701 103.28C57.8813 103.169 57.541 102.988 57.2493 102.738C56.9715 102.488 56.7563 102.162 56.6035 101.759C56.4507 101.342 56.3743 100.829 56.3743 100.217V94.4258H54.9785V92.2591H56.3743V89.2383H58.8951V92.2591H61.8535V94.4258H58.8951Z" fill="#10A37F"/>
<path d="M75.5651 97.7591C75.5651 98.6758 75.4192 99.4883 75.1276 100.197C74.8498 100.905 74.4678 101.509 73.9817 102.009C73.5095 102.495 72.9609 102.863 72.3359 103.113C71.7248 103.363 71.0928 103.488 70.4401 103.488C69.5373 103.488 68.7873 103.294 68.1901 102.905C67.5928 102.516 67.0998 102.065 66.7109 101.551V103.259H64.1901V88.0508H66.7109V94.0924C67.1137 93.5091 67.6137 93.023 68.2109 92.6341C68.8081 92.2313 69.5512 92.0299 70.4401 92.0299C71.0928 92.0299 71.7248 92.1549 72.3359 92.4049C72.947 92.6549 73.4887 93.0299 73.9609 93.5299C74.447 94.0161 74.8359 94.6133 75.1276 95.3216C75.4192 96.0299 75.5651 96.8424 75.5651 97.7591ZM73.0026 97.7591C73.0026 97.2174 72.9192 96.7313 72.7526 96.3008C72.5859 95.8563 72.3567 95.4813 72.0651 95.1758C71.7873 94.8702 71.4539 94.6341 71.0651 94.4674C70.6901 94.3008 70.2873 94.2174 69.8567 94.2174C69.4262 94.2174 69.0164 94.3008 68.6276 94.4674C68.2387 94.6341 67.8984 94.8772 67.6067 95.1966C67.3151 95.5022 67.079 95.8702 66.8984 96.3008C66.7317 96.7313 66.6484 97.2174 66.6484 97.7591C66.6484 98.3008 66.7317 98.7869 66.8984 99.2174C67.079 99.648 67.3151 100.023 67.6067 100.342C67.8984 100.648 68.2387 100.884 68.6276 101.051C69.0164 101.217 69.4262 101.301 69.8567 101.301C70.2873 101.301 70.6901 101.217 71.0651 101.051C71.4539 100.884 71.7873 100.648 72.0651 100.342C72.3567 100.037 72.5859 99.6688 72.7526 99.2383C72.9192 98.7938 73.0026 98.3008 73.0026 97.7591Z" fill="#10A37F"/>
<path d="M80.4593 99.0716V103.259H77.9384V92.2591H80.4593V94.7383C80.8065 93.9049 81.2995 93.2383 81.9384 92.7383C82.5773 92.2383 83.3829 92.0091 84.3551 92.0508V94.7174H84.2093C83.6537 94.7174 83.1468 94.8077 82.6884 94.9883C82.2301 95.1688 81.8343 95.4397 81.5009 95.8008C81.1676 96.1619 80.9107 96.6202 80.7301 97.1758C80.5495 97.7174 80.4593 98.3494 80.4593 99.0716Z" fill="#10A37F"/>
<path d="M87.8865 98.6549C88.0393 99.5577 88.4004 100.252 88.9698 100.738C89.5393 101.211 90.2337 101.447 91.0532 101.447C91.6782 101.447 92.2198 101.336 92.6782 101.113C93.1365 100.891 93.5879 100.565 94.0323 100.134L95.5115 101.447C94.9837 102.072 94.3518 102.572 93.6157 102.947C92.8935 103.322 92.0254 103.509 91.0115 103.509C90.2198 103.509 89.4768 103.37 88.7823 103.092C88.1018 102.815 87.5046 102.426 86.9907 101.926C86.4907 101.426 86.0948 100.829 85.8032 100.134C85.5115 99.4258 85.3657 98.6411 85.3657 97.7799C85.3657 96.9883 85.4976 96.2452 85.7615 95.5508C86.0254 94.8563 86.3935 94.2522 86.8657 93.7383C87.3518 93.2105 87.9212 92.7938 88.574 92.4883C89.2268 92.1827 89.949 92.0299 90.7407 92.0299C91.6157 92.0299 92.3796 92.1897 93.0323 92.5091C93.699 92.8286 94.2476 93.2591 94.6782 93.8008C95.1226 94.3424 95.456 94.9744 95.6782 95.6966C95.9004 96.4188 96.0115 97.1758 96.0115 97.9674C96.0115 98.0786 96.0046 98.1897 95.9907 98.3008C95.9907 98.4119 95.9837 98.5299 95.9698 98.6549H87.8865ZM87.8657 96.9883H93.5115C93.4698 96.5855 93.3796 96.2105 93.2407 95.8633C93.1018 95.5022 92.9143 95.1966 92.6782 94.9466C92.4421 94.6827 92.1573 94.4744 91.824 94.3216C91.5046 94.1688 91.1365 94.0924 90.7198 94.0924C89.9421 94.0924 89.2962 94.3633 88.7823 94.9049C88.2823 95.4327 87.9768 96.1272 87.8657 96.9883Z" fill="#10A37F"/>
<path d="M100.251 98.6549C100.404 99.5577 100.765 100.252 101.335 100.738C101.904 101.211 102.599 101.447 103.418 101.447C104.043 101.447 104.585 101.336 105.043 101.113C105.501 100.891 105.953 100.565 106.397 100.134L107.876 101.447C107.349 102.072 106.717 102.572 105.981 102.947C105.258 103.322 104.39 103.509 103.376 103.509C102.585 103.509 101.842 103.37 101.147 103.092C100.467 102.815 99.8695 102.426 99.3556 101.926C98.8556 101.426 98.4597 100.829 98.1681 100.134C97.8764 99.4258 97.7306 98.6411 97.7306 97.7799C97.7306 96.9883 97.8625 96.2452 98.1264 95.5508C98.3903 94.8563 98.7584 94.2522 99.2306 93.7383C99.7167 93.2105 100.286 92.7938 100.939 92.4883C101.592 92.1827 102.314 92.0299 103.106 92.0299C103.981 92.0299 104.744 92.1897 105.397 92.5091C106.064 92.8286 106.613 93.2591 107.043 93.8008C107.488 94.3424 107.821 94.9744 108.043 95.6966C108.265 96.4188 108.376 97.1758 108.376 97.9674C108.376 98.0786 108.369 98.1897 108.356 98.3008C108.356 98.4119 108.349 98.5299 108.335 98.6549H100.251ZM100.231 96.9883H105.876C105.835 96.5855 105.744 96.2105 105.606 95.8633C105.467 95.5022 105.279 95.1966 105.043 94.9466C104.807 94.6827 104.522 94.4744 104.189 94.3216C103.869 94.1688 103.501 94.0924 103.085 94.0924C102.307 94.0924 101.661 94.3633 101.147 94.9049C100.647 95.4327 100.342 96.1272 100.231 96.9883Z" fill="#10A37F"/>
<path d="M121.512 103.259H118.991V101.426C118.589 101.995 118.082 102.481 117.47 102.884C116.873 103.287 116.13 103.488 115.241 103.488C114.589 103.488 113.957 103.363 113.345 103.113C112.734 102.863 112.193 102.495 111.72 102.009C111.248 101.509 110.866 100.905 110.575 100.197C110.283 99.4883 110.137 98.6758 110.137 97.7591C110.137 96.8424 110.276 96.0299 110.554 95.3216C110.845 94.6133 111.227 94.0161 111.7 93.5299C112.172 93.0299 112.714 92.6549 113.325 92.4049C113.95 92.1549 114.589 92.0299 115.241 92.0299C116.144 92.0299 116.894 92.2244 117.491 92.6133C118.089 93.0022 118.589 93.4536 118.991 93.9674V88.0508H121.512V103.259ZM119.033 97.7591C119.033 97.2174 118.943 96.7313 118.762 96.3008C118.595 95.8702 118.366 95.5022 118.075 95.1966C117.783 94.8772 117.443 94.6341 117.054 94.4674C116.665 94.3008 116.262 94.2174 115.845 94.2174C115.415 94.2174 115.005 94.3008 114.616 94.4674C114.241 94.6202 113.908 94.8494 113.616 95.1549C113.325 95.4605 113.095 95.8355 112.929 96.2799C112.762 96.7105 112.679 97.2036 112.679 97.7591C112.679 98.3008 112.762 98.7938 112.929 99.2383C113.095 99.6688 113.325 100.037 113.616 100.342C113.908 100.648 114.241 100.884 114.616 101.051C115.005 101.217 115.415 101.301 115.845 101.301C116.262 101.301 116.665 101.217 117.054 101.051C117.443 100.884 117.783 100.648 118.075 100.342C118.366 100.023 118.595 99.648 118.762 99.2174C118.943 98.7869 119.033 98.3008 119.033 97.7591Z" fill="#10A37F"/>
<path d="M126.365 98.6549C126.517 99.5577 126.879 100.252 127.448 100.738C128.017 101.211 128.712 101.447 129.531 101.447C130.156 101.447 130.698 101.336 131.156 101.113C131.615 100.891 132.066 100.565 132.511 100.134L133.99 101.447C133.462 102.072 132.83 102.572 132.094 102.947C131.372 103.322 130.504 103.509 129.49 103.509C128.698 103.509 127.955 103.37 127.261 103.092C126.58 102.815 125.983 102.426 125.469 101.926C124.969 101.426 124.573 100.829 124.281 100.134C123.99 99.4258 123.844 98.6411 123.844 97.7799C123.844 96.9883 123.976 96.2452 124.24 95.5508C124.504 94.8563 124.872 94.2522 125.344 93.7383C125.83 93.2105 126.399 92.7938 127.052 92.4883C127.705 92.1827 128.427 92.0299 129.219 92.0299C130.094 92.0299 130.858 92.1897 131.511 92.5091C132.177 92.8286 132.726 93.2591 133.156 93.8008C133.601 94.3424 133.934 94.9744 134.156 95.6966C134.379 96.4188 134.49 97.1758 134.49 97.9674C134.49 98.0786 134.483 98.1897 134.469 98.3008C134.469 98.4119 134.462 98.5299 134.448 98.6549H126.365ZM126.344 96.9883H131.99C131.948 96.5855 131.858 96.2105 131.719 95.8633C131.58 95.5022 131.392 95.1966 131.156 94.9466C130.92 94.6827 130.636 94.4744 130.302 94.3216C129.983 94.1688 129.615 94.0924 129.198 94.0924C128.42 94.0924 127.774 94.3633 127.261 94.9049C126.761 95.4327 126.455 96.1272 126.344 96.9883Z" fill="#10A37F"/>
<path d="M139.334 99.0716V103.259H136.813V92.2591H139.334V94.7383C139.681 93.9049 140.174 93.2383 140.813 92.7383C141.452 92.2383 142.257 92.0091 143.23 92.0508V94.7174H143.084C142.528 94.7174 142.021 94.8077 141.563 94.9883C141.105 95.1688 140.709 95.4397 140.375 95.8008C140.042 96.1619 139.785 96.6202 139.605 97.1758C139.424 97.7174 139.334 98.3494 139.334 99.0716Z" fill="#10A37F"/>
<path d="M118.693 31.193C119.323 29.2896 119.644 27.2968 119.644 25.2908C119.644 21.9716 118.765 18.7122 117.096 15.8479C113.744 9.98161 107.525 6.35985 100.794 6.35985C99.4681 6.35986 98.1459 6.50064 96.8493 6.77984C95.1054 4.80468 92.9648 3.22358 90.5686 2.14078C88.1725 1.05799 85.5752 0.498105 82.9481 0.498047H82.8301L82.7858 0.498309C74.6339 0.498309 67.4046 5.78616 64.8986 13.5816C62.3046 14.1157 59.854 15.2007 57.7109 16.764C55.5678 18.3272 53.7816 20.3326 52.4719 22.646C50.8086 25.5276 49.932 28.7998 49.931 32.1314C49.9317 36.8136 51.6606 41.3289 54.783 44.8031C54.1528 46.7064 53.8313 48.6993 53.831 50.7053C53.8313 54.0245 54.7108 57.2838 56.3792 60.1482C58.3632 63.6207 61.393 66.37 65.0317 67.9998C68.6704 69.6295 72.7299 70.0554 76.6249 69.216C78.3691 71.1912 80.5099 72.7723 82.9062 73.8551C85.3025 74.9379 87.8999 75.4979 90.5272 75.498H90.6452L90.6931 75.4978C98.8495 75.4978 106.076 70.2097 108.582 62.4071C111.176 61.8728 113.627 60.7878 115.77 59.2245C117.913 57.6612 119.7 55.6558 121.009 53.3425C122.671 50.4634 123.546 47.194 123.545 43.8655C123.545 39.1834 121.816 34.6681 118.693 31.194L118.693 31.193ZM90.6499 70.5948H90.6306C87.3669 70.5938 84.2068 69.4428 81.6999 67.342C81.8488 67.2614 81.9959 67.1776 82.1412 67.0906L96.9962 58.4649C97.3669 58.2527 97.6752 57.9457 97.8896 57.5751C98.1041 57.2044 98.2172 56.7832 98.2173 56.3544V35.2871L104.496 38.9316C104.529 38.9482 104.558 38.9726 104.579 39.0028C104.6 39.033 104.614 39.068 104.618 39.1047V56.5396C104.61 64.2911 98.3613 70.5791 90.6499 70.5948ZM60.6103 57.6974C59.3832 55.5646 58.7367 53.1445 58.7359 50.6806C58.7359 49.8771 58.8057 49.0714 58.9417 48.2796C59.0521 48.3461 59.2449 48.4644 59.3832 48.5443L74.2383 57.1701C74.6086 57.3874 75.0298 57.5019 75.4586 57.5018C75.8875 57.5017 76.3086 57.3871 76.6789 57.1695L94.8153 46.6423V53.9316L94.8156 53.9442C94.8156 53.9793 94.8075 54.0139 94.7919 54.0453C94.7763 54.0767 94.7536 54.1041 94.7257 54.1251L79.7086 62.8413C77.5838 64.0706 75.1753 64.718 72.7236 64.7186C70.2694 64.7183 67.8584 64.0694 65.7323 62.8369C63.6063 61.6044 61.8399 59.8318 60.6103 57.6966V57.6974ZM56.7022 25.0968C58.3337 22.248 60.9099 20.0667 63.98 18.9347C63.98 19.0633 63.9727 19.2911 63.9727 19.4492V36.701L63.9724 36.7152C63.9725 37.1435 64.0853 37.5642 64.2994 37.9346C64.5136 38.3049 64.8214 38.6117 65.1917 38.8238L83.3281 49.3494L77.0495 52.994C77.0185 53.0145 76.983 53.027 76.946 53.0304C76.9091 53.0338 76.8719 53.0279 76.8377 53.0134L61.8191 44.2899C59.696 43.0535 57.9334 41.2779 56.708 39.141C55.4827 37.0041 54.8375 34.5809 54.8372 32.1144C54.8382 29.6517 55.4815 27.2323 56.703 25.0976L56.7022 25.0968ZM108.289 37.1647L90.1529 26.6377L96.4318 22.9945C96.4628 22.974 96.4983 22.9614 96.5352 22.9581C96.5722 22.9547 96.6094 22.9605 96.6435 22.9751L111.662 31.6913C113.787 32.9257 115.551 34.7004 116.778 36.8371C118.005 38.9738 118.651 41.3973 118.652 43.8644C118.652 49.7529 114.996 55.0219 109.501 57.0556V39.288C109.501 39.2815 109.501 39.2747 109.501 39.2681C109.501 38.8413 109.389 38.4221 109.176 38.0528C108.964 37.6835 108.658 37.3772 108.289 37.1647ZM114.539 27.7095C114.393 27.6195 114.246 27.5314 114.098 27.445L99.2425 18.819C98.8721 18.602 98.4512 18.4876 98.0225 18.4875C97.5938 18.4876 97.1728 18.602 96.8024 18.819L78.6657 29.3462V22.0569L78.6655 22.0443C78.6655 21.9731 78.6991 21.906 78.7556 21.8634L93.7727 13.1546C95.8968 11.9235 98.3055 11.2755 100.757 11.2754C108.479 11.2754 114.74 17.57 114.74 25.332C114.74 26.1285 114.673 26.9236 114.539 27.7087V27.7095ZM75.252 40.7014L68.9718 37.0569C68.9389 37.0404 68.9105 37.0159 68.8892 36.9857C68.8679 36.9555 68.8543 36.9205 68.8497 36.8838V19.4487C68.8531 11.6909 75.1147 5.40151 82.8327 5.40151C86.1015 5.4022 89.2669 6.55333 91.7796 8.65514C91.6665 8.71719 91.4693 8.82664 91.3383 8.9065L76.4832 17.5323C76.1126 17.7443 75.8044 18.0511 75.59 18.4217C75.3755 18.7922 75.2625 19.2132 75.2624 19.6419V19.6558L75.252 40.7014ZM78.6628 33.3089L86.7405 28.6188L94.8182 33.3058V42.6828L86.7405 47.3699L78.6628 42.6828V33.3089Z" fill="#10A37F"/>
</svg>
