<svg width="173" height="104" viewBox="0 0 173 104" fill="none" xmlns="http://www.w3.org/2000/svg">
<path d="M43.6264 88.6908L50.043 103.378H47.3347L45.8555 99.8574H38.9597L37.4597 103.378H34.8347L41.2514 88.6908H43.6264ZM44.918 97.5866L42.3972 91.7533L39.8972 97.5866H44.918Z" fill="#10A37F"/>
<path d="M54.5647 99.1908V103.378H52.0439V92.3783H54.5647V94.8574C54.9119 94.0241 55.405 93.3574 56.0439 92.8574C56.6828 92.3574 57.4883 92.1283 58.4605 92.1699V94.8366H58.3147C57.7591 94.8366 57.2522 94.9269 56.7939 95.1074C56.3355 95.288 55.9397 95.5588 55.6064 95.9199C55.273 96.281 55.0161 96.7394 54.8355 97.2949C54.655 97.8366 54.5647 98.4685 54.5647 99.1908Z" fill="#10A37F"/>
<path d="M63.4832 94.5449V99.9408C63.4832 100.427 63.6012 100.781 63.8373 101.003C64.0734 101.212 64.4068 101.316 64.8373 101.316C65.379 101.316 65.8998 101.191 66.3998 100.941V103.003C66.0804 103.184 65.7401 103.323 65.379 103.42C65.0179 103.517 64.6012 103.566 64.129 103.566C63.6707 103.566 63.247 103.51 62.8582 103.399C62.4693 103.288 62.129 103.107 61.8373 102.857C61.5595 102.607 61.3443 102.281 61.1915 101.878C61.0387 101.462 60.9623 100.948 60.9623 100.337V94.5449H59.5665V92.3783H60.9623V89.3574H63.4832V92.3783H66.4415V94.5449H63.4832Z" fill="#10A37F"/>
<path d="M79.5979 97.8783C79.5979 98.6699 79.4451 99.413 79.1396 100.107C78.8479 100.802 78.4382 101.413 77.9104 101.941C77.3965 102.455 76.7785 102.864 76.0562 103.17C75.334 103.475 74.5493 103.628 73.7021 103.628C72.8687 103.628 72.091 103.482 71.3687 103.191C70.6604 102.885 70.0423 102.475 69.5146 101.962C69.0007 101.434 68.5979 100.83 68.3062 100.149C68.0146 99.4546 67.8687 98.7116 67.8687 97.9199C67.8687 97.1283 68.0146 96.3852 68.3062 95.6908C68.6118 94.9824 69.0215 94.3713 69.5354 93.8574C70.0632 93.3296 70.6812 92.913 71.3896 92.6074C72.1118 92.3019 72.8965 92.1491 73.7437 92.1491C74.591 92.1491 75.3687 92.3019 76.0771 92.6074C76.7993 92.8991 77.4173 93.3088 77.9312 93.8366C78.459 94.3505 78.8687 94.9546 79.1604 95.6491C79.4521 96.3435 79.5979 97.0866 79.5979 97.8783ZM77.0771 97.9199C77.0771 97.4338 76.9937 96.9755 76.8271 96.5449C76.6604 96.1144 76.4243 95.7394 76.1187 95.4199C75.8271 95.0866 75.4729 94.8296 75.0562 94.6491C74.6535 94.4546 74.2021 94.3574 73.7021 94.3574C73.2021 94.3574 72.7437 94.4546 72.3271 94.6491C71.9243 94.8296 71.5771 95.0796 71.2854 95.3991C70.9937 95.7185 70.7715 96.0935 70.6187 96.5241C70.466 96.9408 70.3896 97.3921 70.3896 97.8783C70.3896 98.3644 70.4729 98.8296 70.6396 99.2741C70.8062 99.7046 71.0354 100.08 71.3271 100.399C71.6326 100.719 71.9868 100.975 72.3896 101.17C72.8062 101.35 73.2576 101.441 73.7437 101.441C74.2576 101.441 74.716 101.35 75.1187 101.17C75.5354 100.975 75.8896 100.719 76.1812 100.399C76.4729 100.08 76.6951 99.7116 76.8479 99.2949C77.0007 98.8644 77.0771 98.406 77.0771 97.9199Z" fill="#10A37F"/>
<path d="M91.1026 94.0866C91.5471 93.5033 92.0679 93.038 92.6651 92.6908C93.2762 92.3296 93.9984 92.1491 94.8318 92.1491C96.0401 92.1491 96.9846 92.5171 97.6651 93.2533C98.3457 93.9755 98.686 95.0102 98.686 96.3574V103.378H96.1651V97.1283C96.1651 96.2533 95.9707 95.5866 95.5818 95.1283C95.1929 94.6699 94.6443 94.4408 93.936 94.4408C93.2415 94.4408 92.6721 94.6769 92.2276 95.1491C91.7971 95.6074 91.5818 96.281 91.5818 97.1699V103.378H89.061V97.1074C89.061 96.2463 88.8665 95.5866 88.4776 95.1283C88.0887 94.6699 87.5401 94.4408 86.8318 94.4408C86.1235 94.4408 85.554 94.6838 85.1235 95.1699C84.6929 95.656 84.4776 96.3296 84.4776 97.1908V103.378H81.9568V92.3783H84.4776V94.0449C84.6582 93.7949 84.8526 93.5588 85.061 93.3366C85.2693 93.1144 85.5054 92.913 85.7693 92.7324C86.0471 92.5519 86.3526 92.413 86.686 92.3158C87.0332 92.2046 87.4151 92.1491 87.8318 92.1491C88.6235 92.1491 89.2901 92.3296 89.8318 92.6908C90.3873 93.038 90.811 93.5033 91.1026 94.0866Z" fill="#10A37F"/>
<path d="M110.773 103.378H108.273V102.024C107.898 102.469 107.419 102.844 106.836 103.149C106.253 103.455 105.544 103.607 104.711 103.607C104.183 103.607 103.683 103.531 103.211 103.378C102.739 103.239 102.322 103.031 101.961 102.753C101.614 102.462 101.329 102.107 101.107 101.691C100.898 101.26 100.794 100.767 100.794 100.212V100.17C100.794 99.5727 100.905 99.0519 101.128 98.6074C101.35 98.163 101.655 97.7949 102.044 97.5033C102.447 97.2116 102.919 96.9963 103.461 96.8574C104.016 96.7046 104.614 96.6283 105.253 96.6283C105.919 96.6283 106.482 96.6699 106.94 96.7533C107.412 96.8366 107.864 96.9477 108.294 97.0866V96.8158C108.294 96.0519 108.058 95.4685 107.586 95.0658C107.128 94.663 106.461 94.4616 105.586 94.4616C104.961 94.4616 104.405 94.5241 103.919 94.6491C103.433 94.7741 102.94 94.9408 102.44 95.1491L101.753 93.1283C102.364 92.8505 102.989 92.6283 103.628 92.4616C104.266 92.2949 105.037 92.2116 105.94 92.2116C107.579 92.2116 108.794 92.6213 109.586 93.4408C110.378 94.2463 110.773 95.3852 110.773 96.8574V103.378ZM108.336 99.3991V98.7116C108.016 98.5866 107.634 98.4824 107.19 98.3991C106.759 98.3158 106.301 98.2741 105.815 98.2741C105.023 98.2741 104.405 98.4269 103.961 98.7324C103.516 99.038 103.294 99.4755 103.294 100.045V100.087C103.294 100.614 103.496 101.017 103.898 101.295C104.315 101.573 104.822 101.712 105.419 101.712C105.836 101.712 106.218 101.656 106.565 101.545C106.926 101.434 107.239 101.281 107.503 101.087C107.766 100.878 107.968 100.635 108.107 100.357C108.259 100.066 108.336 99.7463 108.336 99.3991Z" fill="#10A37F"/>
<path d="M116.503 94.5449V99.9408C116.503 100.427 116.621 100.781 116.857 101.003C117.093 101.212 117.427 101.316 117.857 101.316C118.399 101.316 118.92 101.191 119.42 100.941V103.003C119.1 103.184 118.76 103.323 118.399 103.42C118.038 103.517 117.621 103.566 117.149 103.566C116.691 103.566 116.267 103.51 115.878 103.399C115.489 103.288 115.149 103.107 114.857 102.857C114.58 102.607 114.364 102.281 114.212 101.878C114.059 101.462 113.982 100.948 113.982 100.337V94.5449H112.587V92.3783H113.982V89.3574H116.503V92.3783H119.462V94.5449H116.503Z" fill="#10A37F"/>
<path d="M124.548 90.6908H121.84V88.2949H124.548V90.6908ZM124.465 103.378H121.944V92.3783H124.465V103.378Z" fill="#10A37F"/>
<path d="M133.363 97.7324L137.426 103.378H134.676L131.968 99.5241L129.28 103.378H126.593L130.634 97.7949L126.738 92.3783H129.488L132.03 96.0033L134.572 92.3783H137.259L133.363 97.7324Z" fill="#10A37F"/>
<path d="M118.085 31.0729C118.715 29.1695 119.036 27.1767 119.036 25.1707C119.036 21.8515 118.157 18.5921 116.488 15.7277C113.136 9.8615 106.917 6.23973 100.186 6.23973C98.8604 6.23975 97.5381 6.38053 96.2415 6.65972C94.4976 4.68456 92.357 3.10346 89.9608 2.02067C87.5647 0.937872 84.9674 0.377987 82.3403 0.37793H82.2223L82.178 0.378191C74.0261 0.378191 66.7968 5.66604 64.2908 13.4615C61.6968 13.9956 59.2462 15.0806 57.1031 16.6438C54.96 18.2071 53.1738 20.2125 51.8641 22.5259C50.2008 25.4075 49.3243 28.6797 49.3232 32.0113C49.3239 36.6934 51.0528 41.2088 54.1753 44.683C53.545 46.5863 53.2235 48.5792 53.2232 50.5851C53.2235 53.9044 54.1031 57.1637 55.7714 60.0281C57.7554 63.5006 60.7852 66.2499 64.4239 67.8796C68.0626 69.5094 72.1221 69.9353 76.0172 69.0959C77.7613 71.0711 79.9021 72.6522 82.2984 73.735C84.6947 74.8178 87.2921 75.3778 89.9194 75.3779H90.0374L90.0853 75.3777C98.2417 75.3777 105.469 70.0896 107.975 62.287C110.569 61.7527 113.019 60.6677 115.162 59.1044C117.305 57.5411 119.092 55.5357 120.402 53.2224C122.063 50.3433 122.938 47.0739 122.938 43.7454C122.937 39.0633 121.208 34.548 118.086 31.0739L118.085 31.0729ZM90.0421 70.4747H90.0228C86.7591 70.4736 83.5991 69.3226 81.0921 67.2219C81.241 67.1413 81.3881 67.0575 81.5334 66.9705L96.3884 58.3447C96.7591 58.1326 97.0674 57.8256 97.2819 57.4549C97.4963 57.0843 97.6094 56.6631 97.6095 56.2343V35.167L103.888 38.8115C103.921 38.828 103.95 38.8525 103.971 38.8827C103.992 38.9129 104.006 38.9479 104.011 38.9846V56.4194C104.002 64.1709 97.7536 70.459 90.0421 70.4747ZM60.0025 57.5773C58.7754 55.4445 58.129 53.0243 58.1281 50.5605C58.1281 49.7569 58.1979 48.9513 58.3339 48.1595C58.4443 48.226 58.6371 48.3443 58.7754 48.4242L73.6305 57.05C74.0008 57.2673 74.422 57.3818 74.8508 57.3817C75.2797 57.3816 75.7008 57.2669 76.0711 57.0494L94.2075 46.5222V53.8115L94.2078 53.8241C94.2078 53.8592 94.1997 53.8938 94.1841 53.9252C94.1685 53.9566 94.1458 53.9839 94.1179 54.005L79.1008 62.7211C76.976 63.9505 74.5675 64.5978 72.1158 64.5985C69.6616 64.5982 67.2506 63.9492 65.1245 62.7168C62.9985 61.4843 61.2321 59.7117 60.0025 57.5765V57.5773ZM56.0944 24.9767C57.726 22.1279 60.3022 19.9466 63.3722 18.8146C63.3722 18.9431 63.3649 19.1709 63.3649 19.3291V36.5809L63.3646 36.595C63.3647 37.0234 63.4775 37.4441 63.6917 37.8145C63.9058 38.1848 64.2136 38.4916 64.5839 38.7036L82.7203 49.2293L76.4417 52.8739C76.4107 52.8944 76.3752 52.9069 76.3383 52.9103C76.3013 52.9137 76.2641 52.9078 76.23 52.8933L61.2113 44.1698C59.0882 42.9334 57.3256 41.1578 56.1003 39.0209C54.8749 36.884 54.2297 34.4608 54.2294 31.9943C54.2304 29.5316 54.8737 27.1122 56.0952 24.9775L56.0944 24.9767ZM107.682 37.0446L89.5451 26.5176L95.824 22.8744C95.855 22.8538 95.8905 22.8413 95.9275 22.8379C95.9644 22.8346 96.0016 22.8404 96.0358 22.855L111.054 31.5711C113.179 32.8056 114.943 34.5803 116.17 36.717C117.397 38.8537 118.043 41.2772 118.044 43.7443C118.044 49.6328 114.389 54.9018 108.893 56.9355V39.1679C108.894 39.1613 108.894 39.1545 108.894 39.148C108.893 38.7212 108.781 38.302 108.569 37.9327C108.356 37.5634 108.05 37.2571 107.682 37.0446ZM113.931 27.5893C113.785 27.4994 113.638 27.4113 113.49 27.3249L98.6347 18.6988C98.2643 18.4819 97.8434 18.3675 97.4147 18.3674C96.986 18.3675 96.565 18.4819 96.1947 18.6988L78.0579 29.2261V21.9367L78.0577 21.9242C78.0577 21.853 78.0913 21.7859 78.1478 21.7433L93.1649 13.0345C95.289 11.8034 97.6978 11.1554 100.15 11.1552C107.871 11.1552 114.133 17.4499 114.133 25.2118C114.132 26.0084 114.065 26.8035 113.931 27.5886V27.5893ZM74.6442 40.5813L68.364 36.9368C68.3311 36.9202 68.3027 36.8958 68.2814 36.8656C68.2601 36.8354 68.2465 36.8004 68.2419 36.7637V19.3286C68.2453 11.5708 74.507 5.2814 82.2249 5.2814C85.4937 5.28208 88.6591 6.43321 91.1718 8.53502C91.0587 8.59707 90.8615 8.70652 90.7305 8.78638L75.8755 17.4122C75.5048 17.6241 75.1966 17.931 74.9822 18.3016C74.7677 18.6721 74.6547 19.0931 74.6546 19.5218V19.5357L74.6442 40.5813ZM78.0551 33.1888L86.1327 28.4987L94.2104 33.1856V42.5626L86.1327 47.2498L78.0551 42.5626V33.1888Z" fill="#10A37F"/>
</svg>
