<svg width="173" height="104" viewBox="0 0 173 104" fill="none" xmlns="http://www.w3.org/2000/svg">
<path d="M62.1724 96.0713C62.1724 97.0991 61.9849 98.0643 61.6099 98.9671C61.2349 99.856 60.7001 100.627 60.0057 101.28C59.3251 101.932 58.5057 102.446 57.5474 102.821C56.6029 103.196 55.5613 103.384 54.4224 103.384H48.9849V88.8005H54.4224C55.5613 88.8005 56.6029 88.988 57.5474 89.363C58.5057 89.7241 59.3251 90.231 60.0057 90.8838C60.7001 91.5366 61.2349 92.3074 61.6099 93.1963C61.9849 94.0852 62.1724 95.0435 62.1724 96.0713ZM59.4849 96.113C59.4849 95.3907 59.3599 94.731 59.1099 94.1338C58.8738 93.5227 58.5335 92.9949 58.089 92.5505C57.6585 92.106 57.1307 91.7588 56.5057 91.5088C55.8807 91.2588 55.1863 91.1338 54.4224 91.1338H51.5474V101.05H54.4224C55.1863 101.05 55.8807 100.932 56.5057 100.696C57.1307 100.446 57.6585 100.106 58.089 99.6755C58.5335 99.231 58.8738 98.7102 59.1099 98.113C59.3599 97.5018 59.4849 96.8352 59.4849 96.113Z" fill="#10A37F"/>
<path d="M71.6177 88.6963L78.0343 103.384H75.326L73.8468 99.863H66.951L65.451 103.384H62.826L69.2427 88.6963H71.6177ZM72.9093 97.5921L70.3885 91.7588L67.8885 97.5921H72.9093Z" fill="#10A37F"/>
<path d="M80.3268 103.384V88.8005H82.8893V101.05H90.556V103.384H80.3268Z" fill="#10A37F"/>
<path d="M93.0173 103.384V88.8005H95.5798V101.05H103.246V103.384H93.0173Z" fill="#10A37F"/>
<path d="M110.332 98.238H104.165V95.7588H110.332V98.238Z" fill="#10A37F"/>
<path d="M123.982 88.8005V91.0921H115.732V94.8838H123.044V97.1755H115.732V101.092H124.086V103.384H113.169V88.8005H123.982Z" fill="#10A37F"/>
<path d="M118.49 31.318C119.12 29.4146 119.441 27.4218 119.442 25.4158C119.441 22.0966 118.562 18.8372 116.893 15.9729C113.541 10.1066 107.322 6.48485 100.591 6.48485C99.2654 6.48486 97.9431 6.62564 96.6466 6.90484C94.9026 4.92968 92.762 3.34858 90.3659 2.26578C87.9697 1.18299 85.3725 0.623105 82.7453 0.623047H82.6273L82.5831 0.623309C74.4312 0.623309 67.2018 5.91116 64.6959 13.7066C62.1019 14.2407 59.6513 15.3257 57.5082 16.889C55.365 18.4522 53.5788 20.4576 52.2691 22.771C50.6058 25.6526 49.7293 28.9248 49.7283 32.2564C49.7289 36.9386 51.4578 41.4539 54.5803 44.9281C53.95 46.8314 53.6285 48.8243 53.6283 50.8303C53.6286 54.1495 54.5081 57.4088 56.1764 60.2732C58.1604 63.7457 61.1902 66.495 64.8289 68.1248C68.4676 69.7545 72.5272 70.1804 76.4222 69.341C78.1663 71.3162 80.3071 72.8973 82.7034 73.9801C85.0998 75.0629 87.6972 75.6229 90.3245 75.623H90.4425L90.4904 75.6228C98.6467 75.6228 105.874 70.3347 108.38 62.5321C110.974 61.9978 113.424 60.9128 115.567 59.3495C117.711 57.7862 119.497 55.7808 120.807 53.4675C122.468 50.5884 123.343 47.319 123.343 43.9905C123.342 39.3084 121.613 34.7931 118.491 31.319L118.49 31.318ZM90.4471 70.7198H90.4279C87.1642 70.7188 84.0041 69.5678 81.4972 67.467C81.646 67.3864 81.7931 67.3026 81.9384 67.2156L96.7935 58.5899C97.1642 58.3777 97.4724 58.0707 97.6869 57.7001C97.9014 57.3294 98.0144 56.9082 98.0145 56.4794V35.4121L104.293 39.0566C104.326 39.0732 104.355 39.0976 104.376 39.1278C104.397 39.158 104.411 39.193 104.416 39.2297V56.6646C104.407 64.4161 98.1586 70.7041 90.4471 70.7198ZM60.4075 57.8224C59.1805 55.6896 58.534 53.2695 58.5332 50.8056C58.5332 50.0021 58.603 49.1964 58.7389 48.4046C58.8494 48.4711 59.0421 48.5894 59.1804 48.6693L74.0355 57.2951C74.4059 57.5124 74.827 57.6269 75.2559 57.6268C75.6847 57.6267 76.1058 57.5121 76.4761 57.2945L94.6126 46.7673V54.0566L94.6128 54.0692C94.6128 54.1043 94.6047 54.1389 94.5891 54.1703C94.5735 54.2017 94.5509 54.2291 94.523 54.2501L79.5059 62.9663C77.381 64.1956 74.9725 64.843 72.5209 64.8436C70.0667 64.8433 67.6556 64.1944 65.5296 62.9619C63.4035 61.7294 61.6371 59.9568 60.4075 57.8216V57.8224ZM56.4994 25.2218C58.131 22.373 60.7072 20.1917 63.7772 19.0597C63.7772 19.1883 63.7699 19.4161 63.7699 19.5742V36.826L63.7696 36.8402C63.7697 37.2685 63.8825 37.6892 64.0967 38.0596C64.3108 38.4299 64.6186 38.7367 64.9889 38.9488L83.1254 49.4744L76.8467 53.119C76.8158 53.1395 76.7802 53.152 76.7433 53.1554C76.7063 53.1588 76.6691 53.1529 76.635 53.1384L61.6163 44.4149C59.4932 43.1785 57.7307 41.4029 56.5053 39.266C55.2799 37.1291 54.6347 34.7059 54.6345 32.2394C54.6354 29.7767 55.2787 27.3573 56.5002 25.2226L56.4994 25.2218ZM108.087 37.2897L89.9502 26.7627L96.229 23.1195C96.26 23.099 96.2955 23.0864 96.3325 23.0831C96.3694 23.0797 96.4066 23.0855 96.4408 23.1001L111.459 31.8163C113.584 33.0507 115.348 34.8254 116.575 36.9621C117.802 39.0988 118.448 41.5223 118.449 43.9894C118.449 49.8779 114.794 55.1469 109.298 57.1806V39.413C109.299 39.4065 109.299 39.3997 109.299 39.3931C109.298 38.9663 109.186 38.5471 108.974 38.1778C108.761 37.8085 108.455 37.5022 108.087 37.2897ZM114.336 27.8345C114.19 27.7445 114.043 27.6564 113.895 27.57L99.0397 18.944C98.6694 18.727 98.2484 18.6126 97.8197 18.6125C97.391 18.6126 96.9701 18.727 96.5997 18.944L78.463 29.4712V22.1819L78.4627 22.1693C78.4627 22.0981 78.4963 22.031 78.5528 21.9884L93.5699 13.2796C95.694 12.0485 98.1028 11.4005 100.555 11.4004C108.276 11.4004 114.538 17.695 114.538 25.457C114.537 26.2535 114.47 27.0486 114.336 27.8337V27.8345ZM75.0492 40.8264L68.7691 37.1819C68.7361 37.1654 68.7077 37.1409 68.6864 37.1107C68.6651 37.0805 68.6515 37.0455 68.6469 37.0088V19.5737C68.6503 11.8159 74.912 5.52651 82.6299 5.52651C85.8987 5.5272 89.0641 6.67833 91.5768 8.78014C91.4638 8.84219 91.2666 8.95164 91.1356 9.0315L76.2805 17.6573C75.9098 17.8693 75.6016 18.1761 75.3872 18.5467C75.1728 18.9172 75.0598 19.3382 75.0597 19.7669V19.7808L75.0492 40.8264ZM78.4601 33.4339L86.5378 28.7438L94.6154 33.4308V42.8078L86.5378 47.4949L78.4601 42.8078V33.4339Z" fill="#10A37F"/>
</svg>
