<svg width="61" height="60" viewBox="0 0 61 60" fill="none" xmlns="http://www.w3.org/2000/svg">
<path d="M6.70539 6.53127V53.3882H36.6619V60H5.35138C2.3959 60 0 57.6041 0 54.6486V5.35138C0 2.3959 2.39589 0 5.35138 0H54.7358C57.6913 0 60.0872 2.3959 60.0872 5.35139V36.2265H53.556V6.53127H6.70539Z" fill="#653BB9"/>
<path d="M24.4267 25.8636L17.8519 28.7374C16.7547 29.4515 17.3948 30.2106 17.8519 30.5009C19.6589 31.2919 23.5123 32.9697 24.4703 33.3529C25.4282 33.736 26.2627 35.0945 26.5602 35.7259L29.151 41.7346C29.8999 42.9189 30.7402 42.228 31.0668 41.7346C31.6764 40.2687 33.0392 37.0147 33.614 35.7259C34.1887 34.437 35.2758 33.6068 35.7475 33.3529C37.6778 32.5691 41.7301 30.871 42.4964 30.3485C43.2628 29.826 42.8157 29.0567 42.4964 28.7374C40.6241 27.9392 36.6532 26.2469 35.7475 25.8636C34.8418 25.4804 33.9478 24.1365 33.614 23.5124C32.9899 21.9305 31.5849 18.4965 30.9579 17.4166C30.3309 16.3367 29.5066 16.9666 29.1727 17.4166C28.6067 18.8535 27.2917 22.0843 26.5602 23.5124C25.8287 24.9406 24.8331 25.675 24.4267 25.8636Z" fill="#653BB9"/>
<path d="M42.8058 43.5759L38.5503 45.4359C37.8401 45.898 38.2544 46.3894 38.5503 46.5773C39.7199 47.0892 42.214 48.1752 42.834 48.4232C43.454 48.6712 43.9941 49.5505 44.1867 49.9591L45.8635 53.8482C46.3482 54.6147 46.8921 54.1676 47.1035 53.8482C47.4981 52.8994 48.3801 50.7933 48.7521 49.9591C49.1241 49.1249 49.8278 48.5876 50.1331 48.4232C51.3824 47.9159 54.0052 46.8168 54.5012 46.4786C54.9972 46.1405 54.7079 45.6426 54.5012 45.4359C53.2894 44.9192 50.7192 43.8239 50.1331 43.5759C49.5469 43.3278 48.9682 42.458 48.7521 42.0541C48.3482 41.0301 47.4389 38.8076 47.0331 38.1086C46.6272 37.4096 46.0937 37.8174 45.8776 38.1086C45.5112 39.0386 44.6602 41.1297 44.1867 42.0541C43.7132 42.9784 43.0688 43.4537 42.8058 43.5759Z" fill="#653BB9"/>
</svg>
