<svg xmlns="http://www.w3.org/2000/svg" shape-rendering="geometricPrecision" text-rendering="geometricPrecision" image-rendering="optimizeQuality" fill-rule="evenodd" clip-rule="evenodd" viewBox="0 0 512 509.641"><path d="M115.612 0h280.776C459.975 0 512 52.026 512 115.612v278.416c0 63.587-52.025 115.613-115.612 115.613H115.612C52.026 509.641 0 457.615 0 394.028V115.612C0 52.026 52.026 0 115.612 0z"/><path fill="#fff" d="M339.693 401.216V198.432l48.293-68.967v271.751h-48.293zm-215.62-189.305L256.627 401.22h58.918l-132.56-189.309h-58.912zm-.059 189.309l58.93-84.166 29.48 42.103-29.457 42.063h-58.953zm205.001-292.8L227.143 253.915l29.475 42.094L387.973 108.42h-58.958z"/></svg>