<svg width="173" height="108" viewBox="0 0 173 108" fill="none" xmlns="http://www.w3.org/2000/svg">
<path d="M44.7087 103.685H41.6878L38.1045 98.6016H34.8962V103.685H32.3337V89.1016H38.8337C39.667 89.1016 40.417 89.2127 41.0837 89.4349C41.7642 89.6432 42.3337 89.9488 42.792 90.3516C43.2642 90.7405 43.6253 91.2266 43.8753 91.8099C44.1253 92.3793 44.2503 93.0182 44.2503 93.7266C44.2503 94.3377 44.1601 94.8863 43.9795 95.3724C43.8128 95.8446 43.5767 96.2682 43.2712 96.6432C42.9656 97.0043 42.5976 97.3168 42.167 97.5807C41.7503 97.8307 41.2851 98.0252 40.7712 98.1641L44.7087 103.685ZM41.6462 93.8724C41.6462 93.0668 41.3823 92.4627 40.8545 92.0599C40.3267 91.6432 39.5837 91.4349 38.6253 91.4349H34.8962V96.3307H38.6462C39.5628 96.3307 40.292 96.1085 40.8337 95.6641C41.3753 95.2196 41.6462 94.6224 41.6462 93.8724Z" fill="#10A37F"/>
<path d="M54.1182 98.8932V92.6849H56.639V103.685H54.1182V101.977C53.7571 102.504 53.3057 102.963 52.764 103.352C52.2224 103.727 51.5279 103.914 50.6807 103.914C49.4307 103.914 48.4654 103.532 47.7849 102.768C47.1043 102.004 46.764 100.977 46.764 99.6849V92.6849H49.2849V98.9349C49.2849 99.796 49.4862 100.463 49.889 100.935C50.3057 101.393 50.889 101.622 51.639 101.622C52.3751 101.622 52.9723 101.386 53.4307 100.914C53.889 100.428 54.1182 99.7543 54.1182 98.8932Z" fill="#10A37F"/>
<path d="M62.1206 97.4766V103.685H59.5998V92.6849H62.1206V94.3932C62.3012 94.1293 62.4956 93.8863 62.704 93.6641C62.9262 93.428 63.1762 93.2196 63.454 93.0391C63.7456 92.8585 64.0581 92.7196 64.3915 92.6224C64.7387 92.5113 65.1276 92.4557 65.5581 92.4557C66.8081 92.4557 67.7734 92.8377 68.454 93.6016C69.1345 94.3655 69.4748 95.3932 69.4748 96.6849V103.685H66.954V97.4349C66.954 96.5738 66.7456 95.9141 66.329 95.4557C65.9262 94.9835 65.3498 94.7474 64.5998 94.7474C63.8637 94.7474 63.2665 94.9905 62.8081 95.4766C62.3498 95.9488 62.1206 96.6155 62.1206 97.4766Z" fill="#10A37F"/>
<path d="M80.4637 92.6432L82.9221 100.227L85.1721 92.6849H87.6929L84.0887 103.768H81.8387L79.3804 96.2474L76.9012 103.768H74.6512L71.0887 92.6849H73.6721L75.8804 100.227L78.3179 92.6432H80.4637Z" fill="#10A37F"/>
<path d="M98.5637 103.685H96.0637V102.331C95.6887 102.775 95.2095 103.15 94.6262 103.456C94.0428 103.761 93.3345 103.914 92.5012 103.914C91.9734 103.914 91.4734 103.838 91.0012 103.685C90.5289 103.546 90.1123 103.338 89.7512 103.06C89.4039 102.768 89.1192 102.414 88.897 101.997C88.6887 101.567 88.5845 101.074 88.5845 100.518V100.477C88.5845 99.8793 88.6956 99.3585 88.9178 98.9141C89.14 98.4696 89.4456 98.1016 89.8345 97.8099C90.2373 97.5182 90.7095 97.303 91.2512 97.1641C91.8067 97.0113 92.4039 96.9349 93.0428 96.9349C93.7095 96.9349 94.272 96.9766 94.7303 97.0599C95.2025 97.1432 95.6539 97.2543 96.0845 97.3932V97.1224C96.0845 96.3585 95.8484 95.7752 95.3762 95.3724C94.9178 94.9696 94.2512 94.7682 93.3762 94.7682C92.7512 94.7682 92.1956 94.8307 91.7095 94.9557C91.2234 95.0807 90.7303 95.2474 90.2303 95.4557L89.5428 93.4349C90.1539 93.1571 90.7789 92.9349 91.4178 92.7682C92.0567 92.6016 92.8275 92.5182 93.7303 92.5182C95.3692 92.5182 96.5845 92.928 97.3762 93.7474C98.1678 94.553 98.5637 95.6918 98.5637 97.1641V103.685ZM96.1262 99.7057V99.0182C95.8067 98.8932 95.4248 98.7891 94.9803 98.7057C94.5498 98.6224 94.0914 98.5807 93.6053 98.5807C92.8137 98.5807 92.1956 98.7335 91.7512 99.0391C91.3067 99.3446 91.0845 99.7821 91.0845 100.352V100.393C91.0845 100.921 91.2859 101.324 91.6887 101.602C92.1053 101.879 92.6123 102.018 93.2095 102.018C93.6262 102.018 94.0081 101.963 94.3553 101.852C94.7164 101.74 95.0289 101.588 95.2928 101.393C95.5567 101.185 95.7581 100.942 95.897 100.664C96.0498 100.372 96.1262 100.053 96.1262 99.7057Z" fill="#10A37F"/>
<path d="M111.197 92.6849L106.822 103.997C106.599 104.567 106.37 105.046 106.134 105.435C105.898 105.824 105.634 106.136 105.342 106.372C105.051 106.622 104.731 106.803 104.384 106.914C104.037 107.025 103.641 107.081 103.197 107.081C102.669 107.081 102.197 107.018 101.78 106.893C101.377 106.782 100.981 106.622 100.592 106.414L101.447 104.539C101.683 104.664 101.919 104.761 102.155 104.831C102.405 104.914 102.662 104.956 102.926 104.956C103.287 104.956 103.586 104.865 103.822 104.685C104.058 104.504 104.28 104.171 104.488 103.685L99.905 92.6849H102.592L105.717 100.852L108.572 92.6849H111.197Z" fill="#10A37F"/>
<path d="M125.211 93.2266L120.607 100.102H120.524L115.961 93.2682V103.685H113.44V89.1016H116.17L120.607 95.9974L125.045 89.1016H127.774V103.685H125.211V93.2266Z" fill="#10A37F"/>
<path d="M131.319 103.685V89.1016H133.881V101.352H141.548V103.685H131.319Z" fill="#10A37F"/>
<path d="M118.895 31.6188C119.525 29.7154 119.847 27.7226 119.847 25.7166C119.847 22.3974 118.967 19.138 117.299 16.2736C113.946 10.4074 107.727 6.78563 100.997 6.78563C99.6708 6.78565 98.3486 6.92642 97.052 7.20562C95.3081 5.23046 93.1675 3.64936 90.7713 2.56656C88.3752 1.48377 85.7779 0.923886 83.1508 0.923828H83.0328L82.9885 0.92409C74.8366 0.92409 67.6073 6.21194 65.1013 14.0074C62.5073 14.5415 60.0567 15.6265 57.9136 17.1897C55.7705 18.753 53.9843 20.7584 52.6746 23.0718C51.0113 25.9534 50.1347 29.2256 50.1337 32.5572C50.1344 37.2393 51.8633 41.7547 54.9857 45.2289C54.3555 47.1322 54.034 49.1251 54.0337 51.131C54.034 54.4503 54.9135 57.7096 56.5819 60.574C58.5659 64.0465 61.5957 66.7958 65.2344 68.4255C68.8731 70.0553 72.9326 70.4811 76.8276 69.6418C78.5718 71.617 80.7126 73.1981 83.1089 74.2809C85.5052 75.3637 88.1026 75.9237 90.7299 75.9238H90.8479L90.8958 75.9236C99.0522 75.9236 106.279 70.6355 108.785 62.8329C111.379 62.2986 113.83 61.2136 115.973 59.6503C118.116 58.087 119.902 56.0816 121.212 53.7683C122.874 50.8892 123.748 47.6198 123.748 44.2913C123.747 39.6092 122.018 35.0939 118.896 31.6198L118.895 31.6188ZM90.8526 71.0206H90.8333C87.5696 71.0195 84.4095 69.8685 81.9026 67.7678C82.0515 67.6872 82.1986 67.6034 82.3439 67.5164L97.1989 58.8906C97.5696 58.6785 97.8779 58.3715 98.0923 58.0008C98.3068 57.6302 98.4199 57.209 98.42 56.7802V35.7129L104.699 39.3574C104.732 39.3739 104.76 39.3984 104.782 39.4286C104.803 39.4588 104.816 39.4938 104.821 39.5305V56.9653C104.812 64.7168 98.564 71.0049 90.8526 71.0206ZM60.813 58.1232C59.5859 55.9904 58.9394 53.5702 58.9386 51.1064C58.9386 50.3028 59.0084 49.4972 59.1444 48.7054C59.2548 48.7719 59.4476 48.8902 59.5859 48.9701L74.441 57.5959C74.8113 57.8132 75.2325 57.9277 75.6613 57.9276C76.0902 57.9275 76.5113 57.8128 76.8816 57.5953L95.018 47.0681V54.3574L95.0183 54.37C95.0183 54.4051 95.0102 54.4397 94.9946 54.4711C94.979 54.5025 94.9563 54.5298 94.9284 54.5509L79.9113 63.267C77.7865 64.4964 75.378 65.1437 72.9263 65.1444C70.4721 65.1441 68.0611 64.4951 65.935 63.2627C63.809 62.0302 62.0426 60.2576 60.813 58.1224V58.1232ZM56.9049 25.5226C58.5364 22.6738 61.1126 20.4925 64.1826 19.3605C64.1826 19.489 64.1754 19.7168 64.1754 19.875V37.1268L64.1751 37.1409C64.1752 37.5693 64.288 37.99 64.5021 38.3604C64.7163 38.7307 65.0241 39.0375 65.3943 39.2495L83.5308 49.7752L77.2522 53.4198C77.2212 53.4403 77.1857 53.4528 77.1487 53.4562C77.1118 53.4596 77.0746 53.4537 77.0404 53.4392L62.0218 44.7157C59.8987 43.4793 58.1361 41.7037 56.9107 39.5668C55.6854 37.4299 55.0402 35.0067 55.0399 32.5402C55.0409 30.0775 55.6842 27.6581 56.9057 25.5234L56.9049 25.5226ZM108.492 37.5905L90.3556 27.0635L96.6345 23.4203C96.6655 23.3997 96.701 23.3872 96.7379 23.3838C96.7749 23.3805 96.8121 23.3863 96.8462 23.4009L111.865 32.117C113.989 33.3515 115.754 35.1262 116.981 37.2629C118.208 39.3996 118.854 41.8231 118.854 44.2902C118.854 50.1787 115.199 55.4477 109.703 57.4814V39.7138C109.704 39.7072 109.704 39.7004 109.704 39.6939C109.704 39.2671 109.592 38.8479 109.379 38.4786C109.166 38.1093 108.86 37.803 108.492 37.5905ZM114.742 28.1352C114.595 28.0453 114.448 27.9572 114.3 27.8708L99.4452 19.2447C99.0748 19.0278 98.6538 18.9134 98.2252 18.9133C97.7965 18.9134 97.3755 19.0278 97.0051 19.2447L78.8684 29.772V22.4826L78.8682 22.4701C78.8682 22.3989 78.9018 22.3318 78.9583 22.2891L93.9754 13.5804C96.0995 12.3493 98.5082 11.7013 100.96 11.7011C108.681 11.7011 114.943 17.9958 114.943 25.7577C114.943 26.5543 114.875 27.3493 114.742 28.1345V28.1352ZM75.4547 41.1272L69.1745 37.4827C69.1416 37.4661 69.1132 37.4417 69.0919 37.4115C69.0706 37.3813 69.057 37.3463 69.0524 37.3096V19.8745C69.0558 12.1167 75.3174 5.8273 83.0354 5.8273C86.3042 5.82798 89.4696 6.97911 91.9823 9.08092C91.8692 9.14297 91.672 9.25242 91.541 9.33228L76.6859 17.9581C76.3153 18.17 76.0071 18.4769 75.7927 18.8475C75.5782 19.218 75.4652 19.639 75.4651 20.0677V20.0816L75.4547 41.1272ZM78.8655 33.7347L86.9432 29.0446L95.0209 33.7315V43.1085L86.9432 47.7957L78.8655 43.1085V33.7347Z" fill="#10A37F"/>
</svg>
