<?xml version="1.0" encoding="iso-8859-1"?>
<!-- Generator: Adobe Illustrator 16.0.0, SVG Export Plug-In . SVG Version: 6.00 Build 0)  -->
<!DOCTYPE svg PUBLIC "-//W3C//DTD SVG 1.1//EN" "http://www.w3.org/Graphics/SVG/1.1/DTD/svg11.dtd">
<!-- License: CC0. Made by SVG Repo: https://www.svgrepo.com/svg/8029/my-life-logo -->
<svg version="1.1" id="Capa_1" xmlns="http://www.w3.org/2000/svg" xmlns:xlink="http://www.w3.org/1999/xlink" x="0px" y="0px"
	 width="94px" height="94px" viewBox="0 0 94 94" style="enable-background:new 0 0 94 94;" xml:space="preserve">
<g>
	<path d="M89,0H5C2.239,0,0,2.239,0,5v84c0,2.761,2.239,5,5,5h84c2.762,0,5-2.239,5-5V5C94,2.239,91.762,0,89,0z M29.525,25.832
		c4.989,0,9.032,4.044,9.032,9.033c0,4.988-4.043,9.031-9.032,9.031c-4.988,0-9.033-4.043-9.033-9.031
		C20.493,29.876,24.538,25.832,29.525,25.832z M80.678,54.327c-2.617-0.79-5.27-1.461-7.967-1.931
		c-6.587-1.15-13.208-1.824-19.902-1.391c-3.983,0.254-7.933,0.79-11.767,1.907c-6.295,1.835-12.019,4.72-16.793,9.331
		c-2.039,1.966-4.088,3.964-6.706,5.191c-1.846,0.864-3.759,1.01-5.654,0.19c-2.215-0.958-2.981-2.887-2.19-5.24
		c0.562-1.653,1.571-3.021,2.765-4.25c3.205-3.304,7.136-5.499,11.338-7.247c7.382-3.078,15.141-4.461,23.077-5.031
		c1.734-0.127,3.469-0.151,5.201-0.161c5.118-0.075,10.186,0.466,15.193,1.414c5.037,0.953,9.97,2.314,14.653,4.447
		c0.587,0.266,0.806,0.397,1.386,0.674C85.288,53.178,85.42,55.757,80.678,54.327z"/>
</g>
</svg>
