<?xml version="1.0" encoding="iso-8859-1"?>
<!-- Generator: Adobe Illustrator 19.0.0, SVG Export Plug-In . SVG Version: 6.00 Build 0)  -->
<!-- License: CC0. Made by SVG Repo: https://www.svgrepo.com/svg/283231/real-estate -->
<svg version="1.1" id="Layer_1" xmlns="http://www.w3.org/2000/svg" xmlns:xlink="http://www.w3.org/1999/xlink" x="0px" y="0px"
	 viewBox="0 0 512 512" style="enable-background:new 0 0 512 512;" xml:space="preserve">
<g>
	<g>
		<path d="M507.108,255.327l-50.76-50.761V94.609c0-9.217-7.479-16.696-16.696-16.696H372.87c-9.217,0-16.696,7.479-16.696,16.696
			v9.783l-88.37-88.37c-6.521-6.521-17.087-6.521-23.609,0L4.891,255.326c-6.521,6.521-6.521,17.087,0,23.609s17.087,6.521,23.609,0
			l27.153-27.152v232.391c0,9.217,7.479,16.696,16.696,16.696h367.304c9.217,0,16.696-7.479,16.696-16.696V251.783l27.153,27.153
			c6.522,6.522,17.086,6.522,23.609,0C513.631,272.413,513.631,261.848,507.108,255.327z M378.435,417.392
			c0,9.217-7.479,16.696-16.696,16.696h-50.087c-4.424,0-8.674-1.761-11.804-4.892l-84.717-84.717
			c-3.131,0.381-6.185,0.565-9.218,0.565c-46.032,0-83.478-37.446-83.478-83.478c0-46.032,37.446-83.478,83.478-83.478
			c46.032,0,83.478,37.446,83.478,83.478c0,3.033-0.185,6.087-0.565,9.217l29.065,29.065c3.131,3.131,4.892,7.381,4.892,11.805
			v22.261h22.261c4.424,0,8.674,1.761,11.804,4.892l16.696,16.696c3.131,3.13,4.892,7.38,4.892,11.804V417.392z M422.957,171.174
			l-33.391-33.391v-26.478h33.391V171.174z"/>
	</g>
</g>
<g>
	<g>
		<circle cx="205.913" cy="261.566" r="16.696"/>
	</g>
</g>
</svg>
